Coordinates
version=1
nRows=43
nColumns=12
inDegrees=yes

Units are S.I. units (second, meters, Newtons, ...)
Angles are in degrees

endheader
time	SC_y	SC_z	SC_x	AC_y	AC_z	AC_x	GH_y	GH_z	GH_yy	EL_x	PS_y
       0.0              -20.72          31.95          30.23          47.15          9.257         -3.256          15.41          13.18          93.66          134.8          138.2
   0.02429              -20.73          31.95          30.24          47.15          9.255         -3.255          15.39          13.19          93.66          134.8          138.2
   0.04857              -20.73          31.95          30.24          47.15          9.253         -3.254          15.37           13.2          93.65          134.7          138.2
   0.07286              -20.74          31.95          30.24          47.15          9.251         -3.253          15.35          13.21          93.65          134.7          138.2
   0.09714              -20.74          31.94          30.24          47.14          9.249         -3.252          15.32          13.23          93.64          134.7          138.2
    0.1214              -20.75          31.94          30.25          47.14          9.246         -3.251           15.3          13.24          93.64          134.7          138.2
    0.1457              -20.75          31.94          30.25          47.14          9.244         -3.249          15.27          13.25          93.63          134.6          138.2
      0.17              -20.76          31.94          30.25          47.14          9.241         -3.248          15.24          13.27          93.63          134.6          138.2
    0.1943              -20.76          31.93          30.26          47.13          9.238         -3.247          15.21          13.29          93.62          134.6          138.2
    0.2186              -20.77          31.93          30.26          47.13          9.235         -3.245          15.17           13.3          93.62          134.6          138.2
    0.2429              -20.78          31.93          30.26          47.12          9.232         -3.244          15.14          13.32          93.61          134.5          138.2
    0.2671              -20.78          31.92          30.27          47.12          9.228         -3.242           15.1          13.34           93.6          134.5          138.2
    0.2914              -20.79          31.92          30.27          47.12          9.224          -3.24          15.06          13.37           93.6          134.5          138.2
    0.3157               -20.8          31.91          30.28          47.11           9.22         -3.238          15.01          13.39          93.59          134.4          138.2
      0.34              -20.81          31.91          30.28          47.11          9.215         -3.236          14.96          13.42          93.58          134.4          138.2
    0.3643              -20.82          31.91          30.29           47.1           9.21         -3.233          14.91          13.44          93.57          134.3          138.2
    0.3886              -20.83           31.9           30.3           47.1          9.205         -3.231          14.85          13.48          93.56          134.3          138.1
    0.4128              -20.84          31.89           30.3          47.09          9.199         -3.228          14.79          13.51          93.55          134.2          138.1
    0.4371              -20.86          31.89          30.31          47.08          9.192         -3.225          14.72          13.55          93.53          134.2          138.1
    0.4614              -20.87          31.88          30.32          47.07          9.185         -3.221          14.64          13.59          93.52          134.1          138.1
    0.4857              -20.89          31.87          30.33          47.07          9.178         -3.218          14.56          13.63           93.5          134.0          138.1
      0.51              -20.91          31.86          30.34          47.06          9.169         -3.214          14.47          13.68          93.49          133.9          138.1
    0.5343              -20.93          31.85          30.35          47.05           9.16         -3.209          14.37          13.73          93.47          133.8          138.1
    0.5586              -20.95          31.84          30.36          47.03          9.149         -3.204          14.26          13.79          93.45          133.7          138.1
    0.5828              -20.97          31.83          30.38          47.02          9.137         -3.199          14.13          13.86          93.43          133.6          138.1
    0.6071               -21.0          31.82          30.39          47.01          9.125         -3.192          13.99          13.93           93.4          133.5          138.1
    0.6314              -21.03           31.8          30.41          46.99           9.11         -3.185          13.84          14.01          93.37          133.4          138.0
    0.6557              -21.06          31.79          30.43          46.97          9.094         -3.178          13.66           14.1          93.34          133.2          138.0
      0.68               -21.1          31.77          30.45          46.95          9.075         -3.169          13.47          14.21           93.3          133.0          138.0
    0.7043              -21.15          31.75          30.47          46.93          9.054         -3.159          13.24          14.33          93.26          132.8          138.0
    0.7286               -21.2          31.72           30.5          46.91           9.03         -3.147          12.99          14.46          93.21          132.6          137.9
    0.7528              -21.25          31.69          30.53          46.88          9.003         -3.134          12.69          14.62          93.16          132.3          137.9
    0.7771              -21.32          31.66          30.57          46.84          8.971         -3.119          12.35           14.8           93.1          132.0          137.9
    0.8014              -21.39          31.62          30.62           46.8          8.934         -3.101          11.96          15.01          93.02          131.7          137.8
    0.8257              -21.48          31.58          30.67          46.75          8.891         -3.081           11.5          15.25          92.94          131.3          137.8
      0.85              -21.59          31.53          30.73           46.7          8.841         -3.056          10.96          15.54          92.84          130.8          137.7
    0.8743              -21.72          31.47           30.8          46.63           8.78         -3.027          10.31          15.88          92.72          130.2          137.7
    0.8986              -21.87          31.39          30.88          46.55          8.708         -2.993          9.539          16.29          92.58          129.5          137.6
    0.9228              -22.05           31.3          30.99          46.46           8.62         -2.951          8.603          16.78           92.4          128.7          137.5
    0.9471              -22.27          31.19          31.11          46.34          8.513           -2.9           7.46          17.39          92.19          127.6          137.3
    0.9714              -22.54          31.06          31.27           46.2          8.382         -2.837           6.05          18.14          91.93          126.4          137.2
    0.9957              -22.89          30.89          31.46          46.02          8.217         -2.758           4.29          19.07          91.61          124.8          137.0
      1.02              -23.32          30.68          31.71          45.79           8.01         -2.658          2.074          20.24           91.2          122.8          136.8
